<svg id="Layer_1" data-name="Layer 1" xmlns="http://www.w3.org/2000/svg" viewBox="0 0 337.03 337.03">
  <circle fill="#1b2241" cx="168.51" cy="168.51" r="168.51"/>
  <path fill="#fff" d="M49.47 107l5.37-8.86A8.38 8.38 0 0 1 59.72 94a5.17 5.17 0 0 1 4.08.66h.06a5.5 5.5 0 0 1 2.69 5.49c2.2-1.83 4.5-2.64 7.18-1h.06c3.52 2.14 3.65 6.19 1 10.6L69.23 119zm12.79-8.5c-1.55-.94-3.26-.28-4.61 2l-3 5 5.25 3.18 2.87-4.74c1.36-2.23 1.39-4.26-.42-5.35zm3.88 6.4l-3.33 5.51 5.42 3.28 3.49-5.76c1.43-2.37 1.37-4.37-.4-5.45h-.06c-1.67-1.05-3.46-.32-5.12 2.41zM65.78 83l2.64-3.08L85.94 95l-2.64 3zM82.78 70.89l-5.58 4.75-2.44-2.86L89 60.63l2.44 2.86-5.58 4.75L98.43 83l-3.12 2.65zM95.26 56.39l14.87-8.5 1.8 3.16-11.34 6.48 3 5.21L113.62 57l1.8 3.15-10 5.75 3.08 5.38 11.49-6.56 1.8 3.15-15 8.58zM124.6 63l1.4-3.57a10.66 10.66 0 0 0 7.86.6c2.39-.77 3.53-2.39 3-4v-.07c-.51-1.57-1.67-2.13-6.05-1.74-5 .38-8.13-.14-9.45-4.19v-.06c-1.22-3.77 1.07-7.39 5.43-8.81a12.83 12.83 0 0 1 8.87.17l-1.12 3.6a10.47 10.47 0 0 0-6.7-.33c-2.26.74-3.2 2.33-2.73 3.77v.06c.55 1.7 1.8 2.12 6.36 1.75 5-.38 7.94.51 9.12 4.15v.07c1.34 4.11-1.1 7.61-5.71 9.1a14.23 14.23 0 0 1-10.28-.5zM173.65 55.34a10.11 10.11 0 0 1-7.11 2.89c-4.32-.07-7.51-2.73-7.45-6.72v-.06c0-3 1.83-5.09 5-6.39a7.45 7.45 0 0 1-1.84-4.85v-.06c.05-3.11 2.6-5.77 6.73-5.7 3.66.06 6.09 2.57 6 5.67v.07c-.05 3-2.09 4.81-5.18 5.92l3.9 4.09a33.06 33.06 0 0 0 2.54-4.42l3.05 1.67a35.75 35.75 0 0 1-3.22 5.2l3.6 3.75-3.07 2.13zm-2.27-2.41l-5.06-5.33c-2.16.89-3.11 2.3-3.13 3.78v.07c0 1.94 1.56 3.39 3.8 3.42a6.35 6.35 0 0 0 4.39-1.94zm.07-12.57v-.07a2.48 2.48 0 0 0-2.56-2.64 2.65 2.65 0 0 0-2.82 2.72v.07c0 1.15.43 2 1.69 3.46 2.39-.82 3.66-1.9 3.69-3.54zM196.76 57.73l3.25-2a10.7 10.7 0 0 0 5.93 5.2c2.37.81 4.25.2 4.81-1.42v-.07c.53-1.56-.05-2.7-3.79-5-4.27-2.72-6.42-5-5-9v-.06c1.28-3.75 5.29-5.27 9.63-3.78a12.77 12.77 0 0 1 7 5.46l-3.05 2.19a10.48 10.48 0 0 0-5.18-4.25c-2.24-.77-4-.07-4.44 1.37v.06c-.58 1.69.16 2.78 4 5.22 4.23 2.71 6 5.17 4.8 8.79v.07c-1.4 4.09-5.45 5.42-10 3.85a14.24 14.24 0 0 1-7.96-6.63zM229.55 49.55l3.58 1.91-10.87 20.38-3.58-1.91zM243.61 62.48l-5.91-4.33 2.23-3L255 66.2l-2.22 3-5.91-4.33-11.39 15.62-3.3-2.41zM261.37 72L273 84.63l-2.68 2.46-8.85-9.62-4.47 4.07 7.85 8.52-2.67 2.46-7.82-8.52-4.56 4.2 9 9.74-2.67 2.46-11.75-12.73zM262.08 102.84l3.74.63a10.75 10.75 0 0 0 1.12 7.81c1.27 2.16 3.1 2.92 4.58 2h.06c1.42-.84 1.72-2.09.39-6.28-1.47-4.84-1.63-8 2-10.13h.06c3.41-2 7.45-.56 9.78 3.39a12.82 12.82 0 0 1 1.76 8.7l-3.75-.32a10.52 10.52 0 0 0-1.14-6.61c-1.21-2-3-2.62-4.27-1.84h-.06c-1.54.91-1.68 2.22-.33 6.59 1.46 4.81 1.23 7.86-2.07 9.81h-.06c-3.72 2.2-7.66.58-10.13-3.6a14.27 14.27 0 0 1-1.68-10.15zM67.07 244.23h.05a11.33 11.33 0 0 1 16.32 1 11.65 11.65 0 0 1 3.16 8.9h-3.85a8.92 8.92 0 0 0-2-6.56c-2.8-3.2-7.52-3.23-10.81-.34-3.3 2.89-3.92 7.57-1.1 10.79 1.82 2.07 3.8 2.68 6.41 2.94l-.26 3.59a11.54 11.54 0 0 1-9-4.22 11.26 11.26 0 0 1 1.08-16.1zM94.52 256.48l3 2.48-14.08 17.38-3.06-2.48zM104.29 264.33l3.19 1.78 3 19.37 7.52-13.55 3.38 1.88-10.89 19.59-2.88-1.6-3.07-19.93-7.73 13.93-3.39-1.88zM124.08 287.08v-.06a11.34 11.34 0 0 1 14.3-7.95 11.67 11.67 0 0 1 7.47 5.78l-3.23 2.1a8.92 8.92 0 0 0-5.27-4.41c-4.09-1.18-8.07 1.34-9.28 5.56v.06c-1.21 4.21.79 8.48 4.91 9.67 2.65.76 4.64.2 7-1l1.73 3.16a11.55 11.55 0 0 1-9.84 1.31 11.28 11.28 0 0 1-7.79-14.22zM153.83 282.53l3.91.43-2.46 22.27-3.91-.43zM166.28 283.83l3.64-.24 13 14.69-1-15.46 3.87-.25 1.44 22.35-3.29.22L170.56 290l1 15.9-3.86.25zM194.28 281l3.48-1.11L213.9 291l-4.72-14.75 3.69-1.18 6.83 21.33-3.14 1-16.62-11.4 4.85 15.18-3.68 1.18zM227.39 267.07l3.1-1.93 20.27 14-3.53 2.19-4.79-3.4-9 5.59.9 5.81-3.43 2.13zm12 8.64l-8-5.57 1.46 9.64zM248.13 256.41l-5.13 4.86-2.49-2.66 13.26-12.43 2.49 2.66-5.26 4.86 12.82 13.68-2.9 2.71zM258 240.72l2.42-3.1L278 251.41l-2.42 3.1z"/>
  <path fill="#b6732d" d="M37.8 171.34a.94.94 0 0 1 .48-.83l5.5-3.18a1 1 0 0 1 1 0l5.5 3.18a.94.94 0 0 1 .48.83v6.35a1 1 0 0 1-.48.83l-5.5 3.18a1 1 0 0 1-1 0l-5.5-3.18a1 1 0 0 1-.48-.83zM285 171.34a.94.94 0 0 1 .48-.83l5.5-3.18a1 1 0 0 1 1 0l5.5 3.18a.94.94 0 0 1 .48.83v6.35a1 1 0 0 1-.48.83L292 181.7a1 1 0 0 1-1 0l-5.5-3.18a1 1 0 0 1-.48-.83z"/>
  <path fill="#b6732d" transform="rotate(45 200.522 205.469)" d="M186.71 199.19h27.61v12.57h-27.61z"/>
  <path fill="#1b2241" transform="rotate(45 192.893 197.839)" d="M191.61 186.08h2.56v23.53h-2.56z"/>
  <path fill="#b6732d" transform="rotate(45 179.186 184.141)" d="M161.55 173.73h35.28v20.83h-35.28z"/>
  <path fill="#b6732d" transform="rotate(45 191.667 196.621)" d="M190.38 184.85h2.56v23.53h-2.56z"/>
  <path transform="rotate(45 168.194 173.138)" fill="#262729" d="M166.91 161.37h2.56v23.53h-2.56z"/>
  <path fill="#b6732d" transform="rotate(45 143.019 147.97)" d="M109.51 132.7h67.01v30.55h-67.01z"/>
  <path fill="#fff" transform="rotate(45 166.656 171.611)" d="M165.38 155.04h2.56v33.14h-2.56z"/>
  <path fill="#1b2241" transform="rotate(45 207 211.992)" d="M205.72 200.23h2.56v23.53h-2.56z"/>
  <path fill="#b6732d" d="M212.59 206.84l9.67 2.49-17.89 17.88-2.17-9.98 10.39-10.39z"/>
  <path fill="#b6732d" transform="rotate(45 213.3 218.292)" d="M212.02 203.64h2.56v29.29h-2.56z"/>
  <path fill="#fff" d="M179.09 157.45l6.22-6.48a19.62 19.62 0 0 0 .59-6.4c-.38-2.8 3.94-7 3.94-7l25.33-23.17.82.83-18.15 19.63a.87.87 0 0 0 0 1.21l.24.24a.9.9 0 0 0 1.26 0l19.11-18.62.63.64-18 19.87a.82.82 0 0 0 0 1.12l.54.53a.61.61 0 0 0 .88 0l19.05-19.05.63.64-17.76 19.88a.52.52 0 0 0 0 .72l.71.71a.46.46 0 0 0 .67 0l18.84-18.84.63.64-20.5 24.69-3.62 3.62a9.84 9.84 0 0 1-5.65 1.84c-3.05-.12-4.89-.06-5.9.45S183 161 183 161l-25.33 27.11-15 16.5-10.54 11.94-8.44 9.08a2.69 2.69 0 0 1-3 .89 17.67 17.67 0 0 1-3.71-2.44l-3.15-4.17s-.7-1.33 1-3z"/>
  <path fill="#1b2241" d="M215.17 114.41l.82.83-18.15 19.63a.87.87 0 0 0 0 1.21l.24.24a.85.85 0 0 0 .63.26.9.9 0 0 0 .63-.25l19.11-18.62.63.64-18 19.87a.82.82 0 0 0 0 1.12l.54.53a.6.6 0 0 0 .88 0l19.05-19.05.63.64-17.76 19.88a.52.52 0 0 0 0 .72l.71.71a.51.51 0 0 0 .34.14.47.47 0 0 0 .33-.14l18.84-18.84.63.64-20.5 24.69-3.62 3.62a10 10 0 0 1-5.37 1.85h-.28c-.86 0-1.62-.05-2.29-.05a8.56 8.56 0 0 0-3.61.5c-1 .51-6.61 5.84-6.61 5.84l-25.33 27.11-15 16.5-10.54 11.94-8.44 9.08a3 3 0 0 1-2.11 1.09 2.41 2.41 0 0 1-.94-.2 17.67 17.67 0 0 1-3.71-2.44l-3.15-4.17s-.7-1.33 1-3L179 157.5l6.22-6.48a19.62 19.62 0 0 0 .59-6.4c-.38-2.8 3.94-7 3.94-7l25.33-23.17m.06-2.77l-1.41 1.3-25.33 23.17c-.84.82-5 5.07-4.52 8.69a16.42 16.42 0 0 1-.43 5.13l-5.77 6.03-64.18 59.41c-2.17 2.18-1.88 4.41-1.37 5.39l.08.15.1.13 3.15 4.17.12.16.16.14a19.19 19.19 0 0 0 4.23 2.77 4.4 4.4 0 0 0 1.73.36 4.91 4.91 0 0 0 3.61-1.77l8.41-9L144.23 206l15-16.49 25.28-27c2.42-2.32 5.41-5 6.1-5.48a7.63 7.63 0 0 1 2.69-.27c.6 0 1.33 0 2.21.05h.36a11.88 11.88 0 0 0 6.58-2.25l.11-.08.09-.1 3.62-3.62.07-.07.06-.07 20.5-24.69 1.17-1.41-1.29-1.29-.64-.63-1.41-1.41-1.1-1.19-.64-.63-1.13-1.13-.19-.19-.09-.1-1.06-1.06-.64-.63-1.11-1.12-1.36-1.36-.83-.82-1.35-1.36z"/>
  <path fill="#fff" d="M78.08 170.35h6.58v.94h-5.55v3.1h5v.94h-5v3.19h5.62v.93h-6.65zM86.46 178.13l.63-.76a4.33 4.33 0 0 0 3.12 1.29c1.23 0 2-.65 2-1.55 0-.85-.45-1.33-2.37-1.73-2.09-.46-3.05-1.13-3.05-2.63 0-1.43 1.26-2.48 3-2.48a4.75 4.75 0 0 1 3.2 1.12l-.6.79a4 4 0 0 0-2.63-1c-1.18 0-1.93.65-1.93 1.47 0 .86.47 1.34 2.47 1.77s3 1.18 3 2.57c0 1.56-1.3 2.57-3.11 2.57a5.32 5.32 0 0 1-3.73-1.43zM97.84 171.3h-3v-1h7.15v1h-3.11v8.15h-1zM104.12 170.35h3.16a4.54 4.54 0 0 1 4.84 4.53 4.56 4.56 0 0 1-4.84 4.55h-3.16zm1 1v7.2h2.13a3.52 3.52 0 0 0 3.77-3.57 3.54 3.54 0 0 0-3.77-3.6zM224.2 177.66l3.31-2.91c1.39-1.25 1.89-1.95 1.89-2.86a1.74 1.74 0 0 0-1.83-1.75 2.91 2.91 0 0 0-2.44 1.56l-.76-.54a3.62 3.62 0 0 1 3.28-1.94 2.62 2.62 0 0 1 2.82 2.58c0 1.33-.7 2.15-2.3 3.54l-2.43 2.16h4.82v.93h-6.36zM232.43 173.93c0-2.55 1.52-4.7 3.86-4.7s3.83 2.13 3.83 4.68-1.51 4.71-3.85 4.71-3.84-2.14-3.84-4.69zm6.62 0c0-2-1.09-3.77-2.78-3.77s-2.77 1.74-2.77 3.75c0 2 1.09 3.77 2.79 3.77s2.76-1.76 2.76-3.75zM243.44 170.35l-1.71.54-.25-.84 2.22-.76h.76v9.16h-1zM246.71 176a2.44 2.44 0 0 1 1.87-2.23 2.31 2.31 0 0 1-1.56-2.1c0-1.41 1.44-2.41 3.1-2.41s3.11 1 3.11 2.41a2.31 2.31 0 0 1-1.56 2.1 2.46 2.46 0 0 1 1.87 2.22c0 1.55-1.48 2.59-3.42 2.59s-3.41-1.05-3.41-2.58zm5.79 0c0-1-1.05-1.73-2.38-1.73s-2.37.71-2.37 1.73c0 .91.88 1.71 2.37 1.71s2.38-.8 2.38-1.71zm-.3-4.26c0-.9-.89-1.57-2.08-1.57s-2.08.66-2.08 1.57c0 1 .93 1.66 2.08 1.66s2.08-.69 2.08-1.68z"/>
  <ellipse fill="#fff" cx="119.71" cy="124.76" rx="15.35" ry="4.52" transform="rotate(-45 119.71 124.765)"/>
  <ellipse fill="#1b2241" cx="119.62" cy="124.68" rx="11.47" ry="2.46" transform="rotate(-45 119.62 124.672)"/>
</svg>
